<?xml version="1.0" encoding="iso-8859-1"?>
<!-- Generator: Adobe Illustrator 19.1.0, SVG Export Plug-In . SVG Version: 6.00 Build 0)  -->
<svg version="1.1" id="Capa_1" xmlns="http://www.w3.org/2000/svg" xmlns:xlink="http://www.w3.org/1999/xlink" x="0px" y="0px"
	 viewBox="0 0 463.301 463.301" style="enable-background:new 0 0 463.301 463.301;" xml:space="preserve">
<g>
	<path style="fill:#994C0D;" d="M204.516,191.911c0.75,1.5,0.91,3.28,0.33,4.99c-0.93,2.7-3.45,4.39-6.15,4.39
		c-0.7,0-1.41-0.11-2.11-0.35c-1.63-0.56-3.23-1.15-4.8-1.74c-0.97,2.37-3.22,3.9-5.7,4.02c-0.63,0.2-1.29,0.31-1.97,0.31
		c-0.58,0-1.18-0.08-1.77-0.25l-59.91-16.95c-49.28-13.94-87.84-53.41-100.62-103c-1.97-7.62-2.96-15.45-2.96-23.28
		c0-19.14,5.78-37.56,16.71-53.26c2.06-2.95,6.11-3.68,9.05-1.62c2.95,2.05,3.68,6.1,1.62,9.04c-9.41,13.52-14.38,29.37-14.38,45.84
		c0,6.74,0.86,13.48,2.55,20.04c9.72,37.74,35.86,69.02,70.39,85.68c-17.22-16.17-29.91-37.07-35.97-60.59
		c-0.02-0.06-0.03-0.12-0.05-0.18c-6.44-25.11-3.86-51.84,7.26-75.29c1.53-3.24,5.41-4.62,8.66-3.08c3.24,1.54,4.62,5.41,3.08,8.66
		c-9.84,20.75-12.1,44.41-6.37,66.64c0.02,0.05,0.03,0.11,0.05,0.17c10.07,38.85,40.32,69.77,78.96,80.71l0.58,0.16
		c-12.55-9.13-21.99-20.2-28.22-33.15c-16.14-33.56-4.5-67.09-3.99-68.51c1.2-3.38,4.92-5.14,8.31-3.93
		c3.37,1.2,5.13,4.92,3.94,8.29c-0.13,0.36-10.3,30.09,3.52,58.65c8.31,17.16,23.54,30.62,45.39,40.11l8.75,7.91L204.516,191.911z"
		/>
	<path style="fill:#994C0D;" d="M444.446,60.051c0,7.83-0.99,15.66-2.96,23.28c-12.78,49.59-51.33,89.06-100.61,103l-59.92,16.95
		c-0.59,0.17-1.19,0.25-1.77,0.25c-0.68,0-1.35-0.11-1.98-0.31c-2.47-0.13-4.71-1.66-5.68-4.02c-1.58,0.59-3.17,1.18-4.81,1.74
		c-0.7,0.24-1.41,0.35-2.11,0.35c-2.7,0-5.22-1.69-6.15-4.39c-0.58-1.71-0.42-3.49,0.33-4.99l5.82,0.43l8.76-7.92
		c21.9-9.51,37.16-23.01,45.45-40.23c13.82-28.73,3.57-58.21,3.47-58.51c-1.21-3.38,0.55-7.1,3.94-8.3c3.38-1.21,7.09,0.55,8.3,3.94
		c0.5,1.41,12.15,34.94-4,68.5c-6.22,12.95-15.67,24.03-28.22,33.15l0.59-0.16c38.65-10.94,68.89-41.85,78.96-80.71
		c0.02-0.06,0.03-0.12,0.05-0.17c5.73-22.23,3.47-45.89-6.37-66.64c-1.54-3.25-0.16-7.12,3.08-8.66c3.25-1.54,7.12-0.16,8.66,3.08
		c11.12,23.45,13.7,50.18,7.26,75.3c-0.02,0.06-0.03,0.11-0.05,0.17c-6.06,23.52-18.75,44.42-35.97,60.59
		c34.52-16.66,60.66-47.95,70.39-85.68c1.68-6.56,2.54-13.3,2.54-20.04c0-16.48-4.97-32.33-14.38-45.84
		c-2.05-2.94-1.32-6.99,1.63-9.04c2.94-2.06,6.99-1.33,9.04,1.62C438.666,22.481,444.446,40.901,444.446,60.051z"/>
	<path style="fill:none;stroke:#333333;stroke-width:8;stroke-linejoin:round;stroke-miterlimit:10;" d="M204.516,191.911
		c-0.73-1.48-2.02-2.69-3.71-3.27c-3.79-1.3-7.41-2.7-10.86-4.21c-21.85-9.49-37.08-22.95-45.39-40.11
		c-13.82-28.56-3.65-58.29-3.52-58.65c1.19-3.37-0.57-7.09-3.94-8.29c-3.39-1.21-7.11,0.55-8.31,3.93
		c-0.51,1.42-12.15,34.95,3.99,68.51c6.23,12.95,15.67,24.02,28.22,33.15l-0.58-0.16c-38.64-10.94-68.89-41.86-78.96-80.71
		c-0.02-0.06-0.03-0.12-0.05-0.17c-5.73-22.23-3.47-45.89,6.37-66.64c1.54-3.25,0.16-7.12-3.08-8.66c-3.25-1.54-7.13-0.16-8.66,3.08
		c-11.12,23.45-13.7,50.18-7.26,75.29c0.02,0.06,0.03,0.12,0.05,0.18c6.06,23.52,18.75,44.42,35.97,60.59
		c-34.53-16.66-60.67-47.94-70.39-85.68c-1.69-6.56-2.55-13.3-2.55-20.04c0-16.47,4.97-32.32,14.38-45.84
		c2.06-2.94,1.33-6.99-1.62-9.04c-2.94-2.06-6.99-1.33-9.05,1.62c-10.93,15.7-16.71,34.12-16.71,53.26c0,7.83,0.99,15.66,2.96,23.28
		c12.78,49.59,51.34,89.06,100.62,103l59.91,16.95c0.59,0.17,1.19,0.25,1.77,0.25c0.68,0,1.34-0.11,1.97-0.31
		c2.48-0.12,4.73-1.65,5.7-4.02c1.57,0.59,3.17,1.18,4.8,1.74c0.7,0.24,1.41,0.35,2.11,0.35c2.7,0,5.22-1.69,6.15-4.39
		C205.426,195.191,205.266,193.411,204.516,191.911z"/>
	<path style="fill:none;stroke:#333333;stroke-width:8;stroke-linejoin:round;stroke-miterlimit:10;" d="M258.786,191.911
		c-0.75,1.5-0.91,3.28-0.33,4.99c0.93,2.7,3.45,4.39,6.15,4.39c0.7,0,1.41-0.11,2.11-0.35c1.64-0.56,3.23-1.15,4.81-1.74
		c0.97,2.36,3.21,3.89,5.68,4.02c0.63,0.2,1.3,0.31,1.98,0.31c0.58,0,1.18-0.08,1.77-0.25l59.92-16.95
		c49.28-13.94,87.83-53.41,100.61-103c1.97-7.62,2.96-15.45,2.96-23.28c0-19.15-5.78-37.57-16.71-53.26
		c-2.05-2.95-6.1-3.68-9.04-1.62c-2.95,2.05-3.68,6.1-1.63,9.04c9.41,13.51,14.38,29.36,14.38,45.84c0,6.74-0.86,13.48-2.54,20.04
		c-9.73,37.73-35.87,69.02-70.39,85.68c17.22-16.17,29.91-37.07,35.97-60.59c0.02-0.06,0.03-0.11,0.05-0.17
		c6.44-25.12,3.86-51.85-7.26-75.3c-1.54-3.24-5.41-4.62-8.66-3.08c-3.24,1.54-4.62,5.41-3.08,8.66
		c9.84,20.75,12.1,44.41,6.37,66.64c-0.02,0.05-0.03,0.11-0.05,0.17c-10.07,38.86-40.31,69.77-78.96,80.71l-0.59,0.16
		c12.55-9.12,22-20.2,28.22-33.15c16.15-33.56,4.5-67.09,4-68.5c-1.21-3.39-4.92-5.15-8.3-3.94c-3.39,1.2-5.15,4.92-3.94,8.3
		c0.1,0.3,10.35,29.78-3.47,58.51c-8.29,17.22-23.55,30.72-45.45,40.23c-3.46,1.51-7.08,2.92-10.87,4.22
		C260.806,189.221,259.516,190.431,258.786,191.911z"/>
	<path style="fill:#D16A0D;" d="M261.156,435.081c0.24,0.44,0.52,0.85,0.83,1.22c-6.42,13.24-17.61,22-30.33,22
		c-12.73,0-23.91-8.76-30.34-22c0.32-0.37,0.6-0.78,0.84-1.22c1.29-2.4,3.78-3.84,6.43-3.84c0.48,0,0.98,0.05,1.47,0.15
		c7.12,1.47,14.36,2.21,21.6,2.21c7.23,0,14.46-0.74,21.59-2.21c0.49-0.1,0.99-0.15,1.47-0.15
		C257.366,431.241,259.856,432.681,261.156,435.081z"/>
	<polygon style="fill:#D16A0D;" points="231.656,340.111 244.376,352.841 231.656,365.571 218.926,352.841 	"/>
	<path style="fill:#F9A653;" d="M298.576,336.131c0.64,5.89-0.96,11.81-4.48,16.59l-18.46,25.04c5.66-16.28,5.73-33.99,0.21-50.32
		l-3.13-9.24l0.2-0.07c10.6,8.4,24.22,11.72,24.22,11.72l0.75-0.08L298.576,336.131z"/>
	<path style="fill:#F9A653;" d="M190.596,318.201l-3.13,9.24c-2.73,8.07-4.1,16.47-4.1,24.87c0,8.61,1.44,17.21,4.3,25.45
		l-18.46-25.04c-3.52-4.78-5.12-10.7-4.48-16.59l0.69-6.36l0.75,0.08c0,0,13.62-3.32,24.22-11.72L190.596,318.201z"/>
	<path style="fill:#F9A653;" d="M204.766,260.051h0.01c-1,9.07-2.56,18.08-4.67,26.97l-0.23-0.05
		c-9.05,13.91-29.56,19.61-32.01,20.25l1.8-16.61h0.7l5.75-9.49c1.17-1.93,0.19-4.44-1.98-5.07l-10.48-3.04
		c-2.18-6.37-1.02-13.4,3.08-18.74l4.11-5.35L204.766,260.051z"/>
	<path style="fill:#F9A653;" d="M296.566,254.271c4.1,5.34,5.26,12.37,3.08,18.74l-10.48,3.04c-2.17,0.63-3.15,3.14-1.98,5.07
		l5.75,9.49h0.7l1.8,16.61c-2.45-0.64-22.96-6.34-32.01-20.25l-0.23,0.05c-2.11-8.89-3.67-17.9-4.67-26.97h0.01l33.92-11.13
		L296.566,254.271z"/>
	<path style="fill:#D16A0D;" d="M199.876,286.971l0.23,0.05c-1.62,6.83-3.56,13.59-5.81,20.25l-3.7,10.93l-0.21-0.07
		c-10.6,8.4-24.22,11.72-24.22,11.72l-0.75-0.08l2.45-22.55C170.316,306.581,190.826,300.881,199.876,286.971z"/>
	<path style="fill:#D16A0D;" d="M295.436,307.221l2.45,22.55l-0.75,0.08c0,0-13.62-3.32-24.22-11.72l-0.2,0.07l-3.71-10.93
		c-2.26-6.66-4.2-13.42-5.81-20.25l0.23-0.05C272.476,300.881,292.986,306.581,295.436,307.221z"/>
	<path style="fill:#D16A0D;" d="M292.456,248.921l-33.92,11.13h-0.01c-0.54-4.86-0.92-9.74-1.14-14.63l1.15-0.05l26.59-8.73
		C287.076,240.981,289.526,245.111,292.456,248.921z"/>
	<path style="fill:#D16A0D;" d="M204.766,245.371l1.15,0.05c-0.22,4.89-0.6,9.77-1.14,14.63h-0.01l-33.92-11.13
		c2.93-3.81,5.38-7.94,7.33-12.28L204.766,245.371z"/>
	<path style="fill:#D16A0D;" d="M209.396,195.551c0.15,1.07,0.22,2.17,0.22,3.28c0,13.62-11.04,24.67-24.67,24.67
		c-0.85,0-1.7-0.04-2.53-0.13c0.44-2.19,0.76-4.41,0.96-6.65l1.57-17.89C193.056,197.351,201.216,196.251,209.396,195.551z"/>
	<path style="fill:#D16A0D;" d="M279.926,216.721c0.19,2.24,0.51,4.46,0.95,6.65c-0.83,0.09-1.67,0.13-2.52,0.13
		c-13.62,0-24.67-11.05-24.67-24.67c0-1.11,0.07-2.21,0.22-3.28l24.45,3.28L279.926,216.721z"/>
	<path style="fill:#F9A653;" d="M205.916,245.421l-1.15-0.05l-26.59-8.73c1.92-4.24,3.34-8.7,4.24-13.27
		c0.83,0.09,1.68,0.13,2.53,0.13c13.63,0,24.67-11.05,24.67-24.67c0-1.11-0.07-2.21-0.22-3.28c7.41-0.64,14.83-0.96,22.26-0.96
		c7.42,0,14.85,0.32,22.25,0.96c-0.15,1.07-0.22,2.17-0.22,3.28c0,13.62,11.05,24.67,24.67,24.67c0.85,0,1.69-0.04,2.52-0.13
		c0.91,4.57,2.34,9.03,4.25,13.27l-26.59,8.73l-1.15,0.05c0.22,4.89,0.6,9.77,1.14,14.63c1,9.07,2.56,18.08,4.67,26.97
		c1.61,6.83,3.55,13.59,5.81,20.25l3.71,10.93l3.13,9.24c5.52,16.33,5.45,34.04-0.21,50.32l8.82,21.64
		c4.02,9.84,2.22,21.09-4.67,29.19l-6.59,7.75c-3.01,3.54-8.39,3.36-11.21-0.04c-0.31-0.37-0.59-0.78-0.83-1.22
		c-1.3-2.4-3.79-3.84-6.44-3.84c-0.48,0-0.98,0.05-1.47,0.15c-7.13,1.47-14.36,2.21-21.59,2.21c-7.24,0-14.48-0.74-21.6-2.21
		c-0.49-0.1-0.99-0.15-1.47-0.15c-2.65,0-5.14,1.44-6.43,3.84c-0.24,0.44-0.52,0.85-0.84,1.22c-1.43,1.73-3.52,2.63-5.63,2.63
		c-2.04,0-4.1-0.85-5.58-2.59l-6.59-7.75c-6.88-8.1-8.69-19.35-4.67-29.19l8.82-21.64c-2.86-8.24-4.3-16.84-4.3-25.45
		c0-8.4,1.37-16.8,4.1-24.87l3.13-9.24l3.7-10.93c2.25-6.66,4.19-13.42,5.81-20.25c2.11-8.89,3.67-17.9,4.67-26.97
		C205.316,255.191,205.696,250.311,205.916,245.421z M244.376,352.841l-12.72-12.73l-12.73,12.73l12.73,12.73L244.376,352.841z"/>
	<path style="fill:#994C0D;" d="M207.374,357.161c-2.196,0-3.983-1.773-3.999-3.973c-0.061-8.961,0.647-17.85,2.107-26.419
		l3.439-20.171c4.027-23.698,5.903-68.572,5.903-91.438c0-2.209,1.791-4,4-4s4,1.791,4,4c0,23.137-1.912,68.626-6.017,92.78
		l-3.439,20.172c-1.382,8.108-2.053,16.526-1.994,25.02c0.015,2.209-1.764,4.012-3.973,4.027
		C207.394,357.161,207.384,357.161,207.374,357.161z"/>
	<path style="fill:#994C0D;" d="M255.927,357.161c-0.01,0-0.019,0-0.028,0c-2.209-0.015-3.987-1.818-3.973-4.027
		c0.059-8.489-0.612-16.907-1.994-25.021l-3.43-20.171c-4.111-24.134-6.026-69.631-6.026-92.78c0-2.209,1.791-4,4-4
		c2.209,0,4,1.791,4,4c0,22.877,1.879,67.758,5.913,91.438l3.43,20.171c1.46,8.574,2.169,17.462,2.107,26.418
		C259.91,355.388,258.123,357.161,255.927,357.161z"/>
	<path style="fill:none;stroke:#333333;stroke-width:10;stroke-linecap:round;stroke-linejoin:round;stroke-miterlimit:10;" d="
		M292.936,290.611l-5.75-9.49c-1.17-1.93-0.19-4.44,1.98-5.07l10.48-3.04"/>
	<path style="fill:none;stroke:#333333;stroke-width:10;stroke-linecap:round;stroke-linejoin:round;stroke-miterlimit:10;" d="
		M170.366,290.611l5.75-9.49c1.17-1.93,0.19-4.44-1.98-5.07l-10.48-3.04"/>
	<path style="fill:#D16A0D;" d="M287.366,150.381c3.71,9.52,1.16,20.35-6.43,27.2l-7.57,6.84c-3.46,1.51-4.97,6.62-8.76,7.92
		c-1.69,0.58-5.09-1.91-5.82-0.43l-4.25-0.31c-4.89-30.44,23-66.4,23-66.4L287.366,150.381z"/>
	<path style="fill:#D16A0D;" d="M189.946,184.431l-7.58-6.85c-7.58-6.85-10.14-17.68-6.42-27.2l9.82-25.18
		c0,0,27.9,35.96,23.01,66.4l-4.26,0.31c-0.73-1.48-2.02-2.69-3.71-3.27C197.016,187.341,193.396,185.941,189.946,184.431z"/>
	<path style="fill:#994C0D;" d="M198.696,192.341l-8.75-7.91c3.45,1.51,7.07,2.91,10.86,4.21c1.69,0.58,2.98,1.79,3.71,3.27
		L198.696,192.341z"/>
	<path style="fill:#994C0D;" d="M235.656,194.591v132.57c0,2.21-1.79,4-4,4s-4-1.79-4-4v-132.57c0-2.21,1.79-4,4-4
		S235.656,192.381,235.656,194.591z"/>
	<path style="fill:none;stroke:#333333;stroke-width:10;stroke-linecap:round;stroke-linejoin:round;stroke-miterlimit:10;" d="
		M204.516,191.911l-5.82,0.43l-8.75-7.91l-7.58-6.85c-7.58-6.85-10.14-17.68-6.42-27.2l9.82-25.18c0,0,27.9,35.96,23.01,66.4
		c-0.01,0.04-0.01,0.08-0.02,0.12"/>
	<polyline style="fill:none;stroke:#000000;stroke-width:0.5;stroke-linecap:round;stroke-linejoin:round;" points="
		208.846,191.591 208.776,191.601 204.516,191.911 	"/>
	<path style="fill:none;stroke:#333333;stroke-width:10;stroke-linecap:round;stroke-linejoin:round;stroke-miterlimit:10;" d="
		M258.786,191.911l5.82,0.43l8.76-7.92l7.57-6.84c7.59-6.85,10.14-17.68,6.43-27.2l-9.83-25.18c0,0-27.89,35.96-23,66.4
		c0.01,0.04,0.01,0.08,0.02,0.12"/>
	<polyline style="fill:none;stroke:#000000;stroke-width:0.5;stroke-linecap:round;stroke-linejoin:round;" points="
		254.466,191.591 254.536,191.601 258.786,191.911 	"/>
	<path style="fill:#994C0D;" d="M231.646,424.181c-8.822,0-16-7.177-16-16c0-4.411-3.589-8-8-8s-8,3.589-8,8c0,2.209-1.791,4-4,4
		s-4-1.791-4-4c0-8.822,7.178-16,16-16s16,7.178,16,16c0,4.411,3.589,8,8,8c4.41,0,8.003-3.591,8.01-8.006
		c0-8.817,7.178-15.994,16-15.994c8.822,0,16,7.178,16,16c0,2.209-1.791,4-4,4c-2.209,0-4-1.791-4-4c0-4.411-3.589-8-8-8
		c-4.411,0-8,3.589-8,8C247.643,417.006,240.46,424.181,231.646,424.181z"/>
	<path style="fill:#994C0D;" d="M167.622,311.282c-1.792,0-3.423-1.213-3.878-3.031c-0.535-2.143,0.768-4.315,2.911-4.851
		l0.242-0.061c2.126-0.556,21.389-5.89,29.625-18.55c1.205-1.852,3.682-2.376,5.534-1.172c1.852,1.205,2.376,3.682,1.171,5.534
		c-4.195,6.448-10.944,12.002-20.061,16.506c-6.773,3.346-12.65,5.004-14.291,5.433l-0.281,0.07
		C168.27,311.243,167.944,311.282,167.622,311.282z"/>
	<path style="fill:#994C0D;" d="M166.162,333.852c-1.802,0-3.438-1.226-3.883-3.054c-0.524-2.145,0.791-4.308,2.934-4.833
		c0.148-0.036,12.942-3.248,22.688-10.97c1.731-1.372,4.247-1.081,5.619,0.651c1.372,1.731,1.081,4.247-0.65,5.619
		c-11.158,8.842-25.167,12.327-25.758,12.471C166.794,333.815,166.476,333.852,166.162,333.852z"/>
	<path style="fill:#994C0D;" d="M295.679,311.282c-0.321,0-0.647-0.039-0.973-0.12l-0.238-0.059
		c-1.684-0.44-7.562-2.098-14.334-5.444c-9.116-4.504-15.865-10.058-20.061-16.506c-1.205-1.852-0.681-4.329,1.171-5.534
		c1.853-1.205,4.329-0.68,5.534,1.172c8.236,12.66,27.499,17.995,29.668,18.561l0.199,0.049c2.144,0.536,3.446,2.708,2.911,4.851
		C299.102,310.069,297.471,311.282,295.679,311.282z"/>
	<path style="fill:#994C0D;" d="M297.139,333.852c-0.314,0-0.632-0.037-0.95-0.115c-0.591-0.144-14.6-3.629-25.758-12.471
		c-1.731-1.372-2.022-3.888-0.65-5.619c1.372-1.731,3.888-2.023,5.619-0.651c9.753,7.728,22.56,10.938,22.688,10.97
		c2.143,0.527,3.457,2.692,2.933,4.836C300.572,332.628,298.939,333.852,297.139,333.852z"/>
	<path style="fill:#994C0D;" d="M204.767,264.052c-0.414,0-0.834-0.065-1.248-0.2l-33.92-11.13
		c-2.099-0.689-3.242-2.949-2.554-5.048c0.689-2.1,2.952-3.241,5.048-2.554l33.92,11.13c2.099,0.689,3.242,2.949,2.554,5.048
		C208.014,262.983,206.449,264.052,204.767,264.052z"/>
	<path style="fill:#994C0D;" d="M204.767,249.372c-0.414,0-0.834-0.064-1.249-0.201l-26.59-8.73
		c-2.099-0.689-3.241-2.949-2.553-5.048c0.69-2.099,2.949-3.241,5.049-2.553l26.59,8.73c2.099,0.689,3.241,2.949,2.553,5.048
		C208.013,248.303,206.447,249.372,204.767,249.372z"/>
	<path style="fill:#994C0D;" d="M258.534,264.052c-1.682,0-3.247-1.069-3.8-2.754c-0.689-2.099,0.455-4.359,2.554-5.048l33.92-11.13
		c2.101-0.689,4.359,0.455,5.048,2.554c0.688,2.099-0.455,4.359-2.554,5.048l-33.92,11.13
		C259.368,263.988,258.947,264.052,258.534,264.052z"/>
	<path style="fill:#994C0D;" d="M258.534,249.372c-1.682,0-3.246-1.069-3.8-2.753c-0.689-2.099,0.454-4.359,2.553-5.048l26.59-8.73
		c2.1-0.689,4.358,0.453,5.049,2.553c0.688,2.099-0.454,4.359-2.553,5.048l-26.59,8.73
		C259.368,249.307,258.948,249.372,258.534,249.372z"/>
	<path style="fill:#994C0D;" d="M184.946,227.501c-1.027,0-2.024-0.052-2.962-0.153c-2.196-0.238-3.783-2.212-3.545-4.408
		c0.238-2.196,2.215-3.782,4.408-3.545c0.652,0.071,1.358,0.107,2.099,0.107c11.398,0,20.67-9.273,20.67-20.67
		c0-0.948-0.061-1.865-0.182-2.727c-0.305-2.188,1.221-4.209,3.409-4.515c2.189-0.308,4.209,1.221,4.515,3.408
		c0.171,1.227,0.258,2.517,0.258,3.833C213.615,214.64,200.754,227.501,184.946,227.501z"/>
	<path style="fill:#994C0D;" d="M278.356,227.501c-15.809,0-28.67-12.861-28.67-28.67c0-1.325,0.087-2.616,0.259-3.837
		c0.308-2.188,2.334-3.713,4.518-3.404c2.188,0.307,3.712,2.33,3.404,4.518c-0.12,0.854-0.181,1.77-0.181,2.723
		c0,11.397,9.272,20.67,20.67,20.67c0.733,0,1.436-0.036,2.088-0.107c2.19-0.237,4.169,1.348,4.408,3.545
		c0.238,2.196-1.349,4.17-3.545,4.408C280.369,227.449,279.376,227.501,278.356,227.501z"/>
	<path style="fill:#994C0D;" d="M231.656,369.571c-1.061,0-2.078-0.421-2.828-1.172l-12.729-12.73c-1.562-1.562-1.562-4.095,0-5.657
		l12.729-12.73c0.75-0.75,1.768-1.172,2.828-1.172h0.001c1.061,0,2.078,0.422,2.828,1.173l12.72,12.73
		c1.562,1.562,1.562,4.093,0,5.655l-12.72,12.73C233.735,369.149,232.717,369.571,231.656,369.571L231.656,369.571z
		 M224.583,352.841l7.071,7.072l7.066-7.072l-7.066-7.072L224.583,352.841z"/>
	<path style="fill:#994C0D;" d="M231.656,412.181c-2.209,0-4-1.791-4-4v-30.72c0-2.209,1.791-4,4-4c2.209,0,4,1.791,4,4v30.72
		C235.656,410.39,233.865,412.181,231.656,412.181z"/>
	<path style="fill:none;stroke:#333333;stroke-width:10;stroke-linecap:round;stroke-linejoin:round;stroke-miterlimit:10;" d="
		M257.156,235.301c0,3.38,0.08,6.75,0.23,10.12c0.22,4.89,0.6,9.77,1.14,14.63c1,9.07,2.56,18.08,4.67,26.97
		c1.61,6.83,3.55,13.59,5.81,20.25l3.71,10.93l3.13,9.24c5.52,16.33,5.45,34.04-0.21,50.32l8.82,21.64
		c4.02,9.84,2.22,21.09-4.67,29.19l-6.59,7.75c-3.01,3.54-8.39,3.36-11.21-0.04c-0.31-0.37-0.59-0.78-0.83-1.22
		c-1.3-2.4-3.79-3.84-6.44-3.84c-0.48,0-0.98,0.05-1.47,0.15c-7.13,1.47-14.36,2.21-21.59,2.21c-7.24,0-14.48-0.74-21.6-2.21
		c-0.49-0.1-0.99-0.15-1.47-0.15c-2.65,0-5.14,1.44-6.43,3.84c-0.24,0.44-0.52,0.85-0.84,1.22c-1.43,1.73-3.52,2.63-5.63,2.63
		c-2.04,0-4.1-0.85-5.58-2.59l-6.59-7.75c-6.88-8.1-8.69-19.35-4.67-29.19l8.82-21.64c-2.86-8.24-4.3-16.84-4.3-25.45
		c0-8.4,1.37-16.8,4.1-24.87l3.13-9.24l3.7-10.93c2.25-6.66,4.19-13.42,5.81-20.25c2.11-8.89,3.67-17.9,4.67-26.97
		c0.54-4.86,0.92-9.74,1.14-14.63c0.15-3.37,0.23-6.74,0.23-10.12"/>
	<path style="fill:none;stroke:#333333;stroke-width:10;stroke-linejoin:round;stroke-miterlimit:10;" d="M275.636,377.761
		l18.46-25.04c3.52-4.78,5.12-10.7,4.48-16.59l-0.69-6.36l-2.45-22.55l-1.8-16.61l6.01-17.6c2.18-6.37,1.02-13.4-3.08-18.74
		l-4.11-5.35c-2.93-3.81-5.38-7.94-7.33-12.28c-1.91-4.24-3.34-8.7-4.25-13.27c-0.44-2.19-0.76-4.41-0.95-6.65l-0.878-10.002
		c-0.405-4.611-3.952-8.325-8.54-8.941l-16.602-2.227c-7.4-0.64-14.83-0.96-22.25-0.96c-7.43,0-14.85,0.32-22.26,0.96
		c-5.617,0.481-11.225,1.15-16.813,2.001c-4.489,0.684-7.91,4.387-8.307,8.91l-0.9,10.259c-0.2,2.24-0.52,4.46-0.96,6.65
		c-0.9,4.57-2.32,9.03-4.24,13.27c-1.95,4.34-4.4,8.47-7.33,12.28l-4.11,5.35c-4.1,5.34-5.26,12.37-3.08,18.74l6.01,17.6l-1.8,16.61
		l-2.45,22.55l-0.69,6.36c-0.64,5.89,0.96,11.81,4.48,16.59l18.46,25.04"/>
	<path style="fill:none;stroke:#333333;stroke-width:10;stroke-linecap:round;stroke-linejoin:round;stroke-miterlimit:10;" d="
		M201.316,436.301c6.43,13.24,17.61,22,30.34,22c12.72,0,23.91-8.76,30.33-22"/>
	<path style="fill:none;stroke:#333333;stroke-width:8;stroke-linecap:round;stroke-linejoin:round;stroke-miterlimit:10;" d="
		M252.636,370.421c-6.2,4.7-13.6,7.04-20.98,7.04c-7.4,0-14.78-2.34-20.99-7.04"/>
</g>
<g>
</g>
<g>
</g>
<g>
</g>
<g>
</g>
<g>
</g>
<g>
</g>
<g>
</g>
<g>
</g>
<g>
</g>
<g>
</g>
<g>
</g>
<g>
</g>
<g>
</g>
<g>
</g>
<g>
</g>
</svg>
